<svg xmlns="http://www.w3.org/2000/svg" width="54" height="44" viewBox="0 0 54 44">
  <path fill="#00A5E4" d="M50.17,4.8 C46.95,2.1 42.57,0.8 37.05,0.8 L0.04,0.8 L0.04,9.7 L34.66,9.7 C36.3,9.7 37.58,10.1 38.5,10.9 C39.34,11.6 39.75,12.5 39.75,13.5 C39.75,14.5 39.34,15.3 38.5,16 C37.58,16.8 36.3,17.1 34.66,17.1 L17.04,17.1 C11.26,17.1 6.89,18.3 3.91,20.7 C1.32,22.8 0.04,25.6 0.04,28.9 C0.02,31.1 1.26217745e-29,33.2 1.26217745e-29,35.2 L1.26217745e-29,40 C1.26217745e-29,41.2 0.02,42.2 0.04,42.9 L14.23,42.9 L14.23,33.9 C14.14,33.8 14.09,33.6 14.07,33.4 C14.04,33.3 14.03,33 14.03,32.5 C14.03,30.9 14.54,29.6 15.57,28.6 C17.1,27 19.63,26.2 23.18,26.2 L37.03,26.2 C42.6,26.2 47,24.9 50.22,22.3 C53.12,19.9 54.58,17 54.58,13.5 C54.58,10.1 53.11,7.1 50.17,4.8 L50.17,4.8 Z"/>
</svg>
